<?xml version="1.0" encoding="UTF-8"?>
<svg id="Calque_1" xmlns="http://www.w3.org/2000/svg" version="1.1" viewBox="0 0 128 128">
  <!-- Generator: Adobe Illustrator 30.1.0, SVG Export Plug-In . SVG Version: 2.1.1 Build 136)  -->
  <defs>
    <style>
      .st0 {
        fill: silver;
      }
    </style>
  </defs>
  <path class="st0" d="M116.25,64c0,28.86-23.39,52.25-52.25,52.25S11.75,92.86,11.75,64,35.14,11.75,64,11.75s52.25,23.39,52.25,52.25ZM37.37,65.25c4.85-.75,9.18-2.06,13.51-4.14,9.45-4.54,18.74-12.24,23.64-21.63,3.15-6.03,4.91-14.25-.36-19.58-5.83-5.89-16.91-4.62-24.13-2.06-9.81,3.49-18.35,9.69-24.9,17.75-2.35,2.89-4.08,5.93-5.47,9.31-1.05,2.54-1.4,5.09-1.44,7.84-.07,4.86,2.53,9.07,7.05,11.02,3.79,1.63,7.9,2.14,12.11,1.48Z"/>
</svg>